<svg width="24" height="24" viewBox="0 0 24 24" fill="none" xmlns="http://www.w3.org/2000/svg">
<g clip-path="url(#clip0_3_107)">
<path d="M12.0002 0.600005H12C9.7453 0.600005 7.54123 1.2686 5.6665 2.52125C3.79178 3.7739 2.33062 5.55434 1.46778 7.63741C0.60494 9.72049 0.379182 12.0127 0.819053 14.224C1.25892 16.4354 2.34467 18.4667 3.93899 20.061C5.53331 21.6553 7.56459 22.7411 9.77598 23.181C11.9874 23.6208 14.2795 23.3951 16.3626 22.5322C18.4457 21.6694 20.2261 20.2082 21.4788 18.3335C22.7314 16.4588 23.4 14.2547 23.4 12V11.9998C23.3965 8.97749 22.1943 6.07994 20.0572 3.94282C17.9201 1.80571 15.0225 0.603525 12.0002 0.600005ZM11.9998 23.85C9.65619 23.85 7.36518 23.155 5.4165 21.8529C3.46778 20.5508 1.94893 18.7001 1.05203 16.5348C0.155134 14.3695 -0.079535 11.9869 0.3777 9.68819C0.834935 7.38951 1.96354 5.27804 3.62079 3.62079C5.27804 1.96354 7.38951 0.834935 9.68819 0.3777C11.9869 -0.079535 14.3695 0.155134 16.5348 1.05203C18.7001 1.94893 20.5508 3.46778 21.8529 5.4165C23.155 7.36518 23.85 9.65619 23.85 11.9998C23.8466 15.1416 22.597 18.1538 20.3754 20.3754C18.1538 22.597 15.1416 23.8466 11.9998 23.85Z" fill="white" stroke="white" stroke-width="0.3"/>
<path d="M17.8125 8.1H6.1875C6.12783 8.1 6.0706 8.07629 6.0284 8.0341C5.98621 7.9919 5.9625 7.93467 5.9625 7.875C5.9625 7.81533 5.98621 7.7581 6.0284 7.7159C6.0706 7.67371 6.12783 7.65 6.1875 7.65H17.8125C17.8722 7.65 17.9294 7.67371 17.9716 7.7159C18.0138 7.7581 18.0375 7.81533 18.0375 7.875C18.0375 7.93467 18.0138 7.9919 17.9716 8.0341C17.9294 8.07629 17.8722 8.1 17.8125 8.1ZM17.8125 12.225H6.1875C6.12783 12.225 6.0706 12.2013 6.0284 12.1591C5.98621 12.1169 5.9625 12.0597 5.9625 12C5.9625 11.9403 5.98621 11.8831 6.0284 11.8409C6.0706 11.7987 6.12783 11.775 6.1875 11.775H17.8125C17.8722 11.775 17.9294 11.7987 17.9716 11.8409C18.0138 11.8831 18.0375 11.9403 18.0375 12C18.0375 12.0597 18.0138 12.1169 17.9716 12.1591C17.9294 12.2013 17.8722 12.225 17.8125 12.225ZM17.8125 16.35H6.1875C6.12783 16.35 6.0706 16.3263 6.0284 16.2841C5.98621 16.2419 5.9625 16.1847 5.9625 16.125C5.9625 16.0653 5.98621 16.0081 6.0284 15.9659C6.0706 15.9237 6.12783 15.9 6.1875 15.9H17.8125C17.8722 15.9 17.9294 15.9237 17.9716 15.9659C18.0138 16.0081 18.0375 16.0653 18.0375 16.125C18.0375 16.1847 18.0138 16.2419 17.9716 16.2841C17.9294 16.3263 17.8722 16.35 17.8125 16.35Z" fill="white" stroke="white" stroke-width="0.3"/>
</g>
<defs>
<clipPath id="clip0_3_107">
<rect width="24" height="24" fill="white"/>
</clipPath>
</defs>
</svg>
